<svg width="500" height="500" viewBox="0 0 500 500" fill="none" xmlns="http://www.w3.org/2000/svg">
<rect x="12.5" y="12.5" width="474.5" height="475.125" rx="60" fill="#545454"/>
<path d="M342.271 374.735C341.207 373.225 340.807 368.997 341.207 362.353C341.606 353.445 343.469 347.405 354.782 317.357C367.558 283.534 381.266 253.335 391.647 236.575C394.442 232.045 400.431 221.777 404.823 213.775C414.804 195.655 426.649 179.65 432.771 175.875C439.026 172.1 446.08 172.402 451.537 176.63C456.993 180.707 459.256 187.652 458.058 196.41C457.126 203.205 446.346 224.042 433.037 244.578C426.915 254.09 414.937 274.475 392.845 313.431C384.859 327.474 366.76 357.522 364.63 360.391C359.44 367.185 348.66 377 346.53 377C345.066 377 343.203 375.943 342.271 374.735Z" fill="#03989E"/>
<path d="M315.244 315.839C312.417 313.421 309.494 304.162 308.667 294.058C308.206 289.456 307.644 284.541 307.371 283.298C307.099 282.055 307.098 279.475 307.417 277.686C307.751 275.747 307.377 274.19 306.583 274.108C305.789 274.026 305.586 273.398 306.076 272.538C307.026 271.118 304.365 246.403 303.049 244.9C301.981 243.576 304.297 223.778 305.621 223.914C306.151 223.969 306.726 220.993 306.85 217.211C306.974 213.428 307.549 210.452 308.211 210.52C308.741 210.575 311.111 191.542 313.52 168.262C316.099 143.33 318.89 122.822 320.104 118.849C322.531 110.903 330.254 103.504 335.549 104.052C337.27 104.23 338.937 103.644 339.295 102.77C340.369 100.149 355.556 111.131 355.229 114.286C355.167 114.886 355.939 116.484 356.858 117.945C357.793 119.256 358.283 120.977 357.809 121.687C357.201 122.383 357.536 123.025 358.331 123.107C359.257 123.203 359.546 124.296 358.892 125.442C358.37 126.603 358.526 127.681 359.188 127.75C359.983 127.832 359.891 133.895 359.036 142.155C358.228 149.965 357.163 156.383 356.501 156.314C355.971 156.259 355.396 159.236 355.272 163.018C355.148 166.8 354.573 169.777 354.043 169.722C353.381 169.653 352.775 172.93 352.472 177.149C352.317 181.232 351.695 184.659 351.033 184.591C350.504 184.536 349.796 187.499 349.672 191.281C349.548 195.063 348.973 198.039 348.443 197.985C347.781 197.916 347.097 201.944 346.717 206.914C346.469 211.898 345.784 215.926 345.122 215.857C344.593 215.802 343.66 222.233 342.984 230.057C342.425 238.045 341.516 245.541 340.699 246.974C340.03 248.271 338.086 261.884 336.501 277.204C333.478 305.126 331.448 313.113 327.344 312.688C326.55 312.606 324.424 313.752 322.665 315.24C319.13 318.366 318.32 318.434 315.244 315.839Z" fill="#797979"/>
<path d="M155.815 361.297C153.287 360.24 146.1 355.71 139.845 351.18C133.723 346.499 121.745 338.194 113.36 332.457C84.2139 312.978 52.1398 285.95 44.5537 274.927C33.1082 257.714 51.3412 237.481 70.3728 246.389C73.0345 247.597 79.6889 253.335 85.1456 258.922C90.6022 264.509 101.782 275.23 109.9 282.779C118.018 290.329 127.467 299.993 130.928 304.371C134.388 308.75 140.643 315.243 144.902 319.018C153.819 326.719 156.747 331.098 163.8 346.801C170.854 362.504 168.592 366.581 155.815 361.297Z" fill="#FF5757"/>
<path d="M264.548 372.621C263.217 370.96 255.631 351.482 247.646 329.286C236.866 299.238 232.873 286.101 231.808 277.947C231.143 271.908 229.28 263.301 227.816 258.922C226.219 254.543 222.758 237.632 219.83 221.475C216.37 202.148 211.446 180.707 205.191 158.963C200.133 140.844 195.875 124.537 195.875 122.725C196.008 117.138 200.799 107.323 205.191 103.699C212.378 97.9616 223.158 99.9245 229.945 108.531C238.729 119.403 248.844 159.114 257.095 214.983C260.023 235.216 265.746 267.982 269.738 287.913C276.792 322.793 277.058 324.907 277.058 345.593C277.058 359.938 276.393 368.393 275.328 370.96C273.199 375.792 267.742 376.698 264.548 372.621Z" fill="#7ED957"/>
<path d="M215.039 353.747C211.313 351.784 205.324 346.801 201.731 342.724C191.882 331.551 170.056 299.691 149.826 266.925C139.978 250.768 127.334 231.441 121.878 223.891C116.421 216.342 110.432 206.678 108.569 202.299L105.109 194.598L107.77 187.803C111.098 179.197 115.889 175.573 123.874 175.573C132.791 175.573 138.381 180.103 150.891 197.165C164.732 216.04 176.577 236.575 188.289 261.942C193.479 273.267 201.464 288.064 205.989 294.859C210.514 301.503 214.906 308.599 215.838 310.411C217.967 314.941 227.816 347.858 227.816 350.425C227.816 352.237 223.69 357.371 222.359 357.371C222.093 357.371 218.766 355.71 215.039 353.747Z" fill="#FFDE59"/>
</svg>
